<svg xmlns="http://www.w3.org/2000/svg" viewBox="0 0 150 150"><defs><style>.cls-1,.cls-2{fill:#373737;}.cls-2{stroke:#fff;stroke-miterlimit:10;stroke-width:9px;}.cls-3{fill:none;}</style></defs><title>huc-tab-provenance</title><g id="Provenance"><path class="cls-1" d="M137.35,67.91A21.55,21.55,0,0,0,121.14,47c0-.23,0-.46,0-.7A21.52,21.52,0,0,0,92,26.17,21.54,21.54,0,0,0,53.87,25,21.37,21.37,0,0,0,30.36,40.45,21.53,21.53,0,0,0,18.23,73,21.56,21.56,0,0,0,33.57,109.7a21.56,21.56,0,0,0,32,18.85,21.55,21.55,0,0,0,38.77-7A21.52,21.52,0,0,0,125,87.4,21.55,21.55,0,0,0,137.35,67.91Zm-62,48.52a40.77,40.77,0,1,1,40.77-40.77A40.77,40.77,0,0,1,75.34,116.43Z"/><circle class="cls-2" cx="74.93" cy="75.82" r="36.32"/></g><g id="size"><rect class="cls-3" width="150" height="150"/></g></svg>