<svg xmlns="http://www.w3.org/2000/svg" viewBox="0 0 150 150"><defs><style>.cls-1{fill:none;}</style></defs><title>huc-tab-metadata</title><g id="Metadata"><path d="M61.4,16.24l.37,0h.74a2.34,2.34,0,0,1,1.69.67l.65.65h0l0,0,72.73,72.73a2.43,2.43,0,0,1,0,3.38L96.23,135.12a2.43,2.43,0,0,1-3.38,0L20.1,62.38l-.67-.67a2.38,2.38,0,0,1-.67-1.79v-.64c0-.12,0-.24,0-.37v-38a4.69,4.69,0,0,1,4.63-4.63h38m.22-9H23.37A13.67,13.67,0,0,0,9.74,20.87V59.12c0,.15,0,.3,0,.45a11.36,11.36,0,0,0,3.3,8.5l.67.67h0l72.73,72.73a11.43,11.43,0,0,0,16.11,0L144,100.09A11.43,11.43,0,0,0,144,84L71.25,11.25h0l-.67-.67a11.34,11.34,0,0,0-8.05-3.31h-.44l-.45,0Z"/><path d="M40.68,31.22a7,7,0,1,1-4.92,2,6.91,6.91,0,0,1,4.92-2m0-9A16,16,0,1,0,52,26.89a15.9,15.9,0,0,0-11.28-4.67Z"/></g><g id="size"><rect class="cls-1" width="150" height="150"/></g></svg>