<svg xmlns="http://www.w3.org/2000/svg" viewBox="0 0 150 150"><defs><style>.cls-1{fill:#373737;}.cls-2{fill:none;}</style></defs><title>huc-tab-info</title><g id="Information"><path class="cls-1" d="M53.53,57.13l1.42-7.53L86.55,45l4.69,2.12L79.47,129.46q-.18,1.77-.18,2.48,0,4.25,2.74,4.25a7.43,7.43,0,0,0,3.5-1.11,36.88,36.88,0,0,0,5.27-3.85L93.37,137a33.19,33.19,0,0,1-4.74,5,33.69,33.69,0,0,1-8.32,5.31,25.8,25.8,0,0,1-11.11,2.39q-7.17,0-11-2.79a9.41,9.41,0,0,1-3.81-8.1,12.5,12.5,0,0,1,.09-1.68q1.24-10.09,5-36.48L65,62.26ZM70.44,8.84A15.46,15.46,0,0,1,76,3.13,14.86,14.86,0,0,1,83.81,1a13.94,13.94,0,0,1,6.91,1.68,12.12,12.12,0,0,1,4.65,4.47,11.6,11.6,0,0,1,1.64,6,17.34,17.34,0,0,1-1.9,8.1,14.35,14.35,0,0,1-5.58,5.84,16.66,16.66,0,0,1-8.63,2.17,11.53,11.53,0,0,1-6.15-1.77,13.46,13.46,0,0,1-4.6-4.69,11.83,11.83,0,0,1-1.73-6.11A15.59,15.59,0,0,1,70.44,8.84Z"/></g><g id="size"><rect class="cls-2" width="150" height="150"/></g></svg>